<?xml version="1.0" standalone="no"?>
<!DOCTYPE svg PUBLIC "-//W3C//DTD SVG 20010904//EN"
 "http://www.w3.org/TR/2001/REC-SVG-20010904/DTD/svg10.dtd">
<svg version="1.0" xmlns="http://www.w3.org/2000/svg"
 width="500.000000pt" height="500.000000pt" viewBox="0 0 500.000000 500.000000"
 preserveAspectRatio="xMidYMid meet">
<metadata>
Created by potrace 1.11, written by Peter Selinger 2001-2013
</metadata>
<g transform="translate(0.000000,500.000000) scale(0.100000,-0.100000)"
fill="#000000" stroke="none">
<path d="M0 2500 l0 -2500 2500 0 2500 0 0 2500 0 2500 -2500 0 -2500 0 0
-2500z m3390 885 l885 -885 -888 -888 -887 -887 -887 887 -888 888 885 885
c487 487 887 885 890 885 3 0 403 -398 890 -885z"/>
<path d="M2420 4035 l-74 -75 154 0 154 0 -74 75 c-41 41 -77 75 -80 75 -3 0
-39 -34 -80 -75z"/>
<path d="M1518 2973 c10 -27 45 -117 78 -201 l59 -153 54 3 53 3 78 198 78
197 -53 0 -53 0 -48 -140 c-27 -77 -51 -140 -54 -140 -3 0 -27 63 -54 140
l-48 140 -54 0 -54 0 18 -47z"/>
<path d="M2010 2820 l0 -200 50 0 50 0 0 200 0 200 -50 0 -50 0 0 -200z"/>
<path d="M2250 2821 l0 -201 50 0 50 0 0 55 0 55 43 0 c41 0 43 -2 71 -55 l28
-55 60 0 59 0 -41 59 c-22 33 -40 62 -40 65 0 2 13 18 29 34 59 58 48 165 -22
216 -25 18 -46 21 -158 25 l-129 3 0 -201z m228 103 c28 -19 29 -67 2 -94 -15
-15 -33 -20 -75 -20 l-55 0 0 65 0 65 53 0 c31 0 61 -6 75 -16z"/>
<path d="M2780 2853 c-40 -93 -79 -183 -87 -200 l-13 -33 53 0 c52 0 53 1 66
35 l13 36 91 -3 91 -3 10 -32 c9 -32 11 -33 62 -33 30 0 54 3 54 6 0 3 -37 93
-81 200 l-82 194 -52 0 -52 0 -73 -167z m156 -25 l23 -58 -59 0 -59 0 15 35
c39 96 46 109 51 96 3 -8 16 -40 29 -73z"/>
<path d="M3220 2820 l0 -200 135 0 135 0 0 40 0 39 -82 3 -83 3 -3 158 -3 157
-49 0 -50 0 0 -200z"/>
<path d="M1660 2110 l0 -200 120 0 c174 0 230 28 230 116 0 28 -7 44 -33 68
l-33 31 25 21 c38 32 36 98 -3 129 -38 30 -66 35 -197 35 l-109 0 0 -200z
m214 114 c19 -7 21 -45 4 -62 -7 -7 -36 -12 -65 -12 l-53 0 0 40 0 40 49 0
c27 0 56 -3 65 -6z m-1 -153 c33 -13 42 -39 21 -62 -13 -14 -31 -19 -76 -19
l-58 0 0 38 c0 21 3 42 7 45 9 10 78 8 106 -2z"/>
<path d="M2130 2110 l0 -200 135 0 135 0 0 40 0 40 -85 0 -85 0 0 160 0 160
-50 0 -50 0 0 -200z"/>
<path d="M2470 2303 c0 -4 33 -93 74 -198 l74 -190 53 -3 54 -3 75 192 c41
105 77 195 79 200 2 6 -19 9 -50 7 l-54 -3 -47 -135 c-26 -74 -48 -139 -51
-145 -2 -5 -26 56 -53 135 l-49 145 -52 3 c-29 2 -53 -1 -53 -5z"/>
<path d="M2980 2110 l0 -200 103 0 c123 0 166 11 214 53 45 39 63 82 63 147 0
65 -18 108 -63 147 -48 42 -91 53 -214 53 l-103 0 0 -200z m220 105 c65 -34
79 -140 27 -193 -21 -20 -38 -27 -87 -30 l-60 -4 0 121 0 121 45 0 c26 0 59
-7 75 -15z"/>
<path d="M2423 963 l77 -78 77 78 78 77 -155 0 -155 0 78 -77z"/>
</g>
</svg>
